<?xml version="1.0" encoding="UTF-8"?>
<svg width="16px" height="16px" viewBox="0 0 16 16" version="1.1" xmlns="http://www.w3.org/2000/svg" xmlns:xlink="http://www.w3.org/1999/xlink">
    <title>icon-solter-on_light</title>
    <g id="icon-solter-on_light" stroke="none" stroke-width="1" fill="none" fill-rule="evenodd">
        <path d="M10.6425791,9.00152695 C10.7060244,9.00138925 10.7642456,9.04290181 10.7935445,9.10916776 C10.8228433,9.17543371 10.8183345,9.25540387 10.7818533,9.3165273 L8.13564416,13.7675273 C8.10387586,13.8211204 8.05187372,13.8530546 7.99637,13.8530546 C7.94086628,13.8530546 7.88886414,13.8211204 7.85709584,13.7675273 L5.21088674,9.3165273 C5.17440551,9.25540387 5.16989668,9.17543371 5.19919552,9.10916776 C5.22849436,9.04290181 5.28671559,9.00138925 5.3501609,9.00152695 L10.6425791,9.00152695 Z M7.99637,2.15 C8.05187372,2.15 8.10387586,2.18193415 8.13564416,2.2355273 L10.7818533,6.6865273 C10.8183345,6.74765072 10.8228433,6.82762088 10.7935445,6.89388683 C10.7642456,6.96015278 10.7060244,7.00166534 10.6425791,7.00152764 L5.3501609,7.00152764 C5.28671559,7.00166534 5.22849436,6.96015278 5.19919552,6.89388683 C5.16989668,6.82762088 5.17440551,6.74765072 5.21088674,6.6865273 L7.85709584,2.2355273 C7.88886414,2.18193415 7.94086628,2.15 7.99637,2.15 Z" id="icon" fill="#101314" fill-rule="nonzero"></path>
        <rect id="guide-box" x="0" y="0" width="16" height="16"></rect>
    </g>
</svg>