<?xml version="1.0" encoding="UTF-8"?>
<svg width="65px" height="65px" viewBox="0 0 65 65" version="1.1" xmlns="http://www.w3.org/2000/svg" xmlns:xlink="http://www.w3.org/1999/xlink">
    <title>icon-play</title>
    <g id="icon-play" stroke="none" stroke-width="1" fill="none" fill-rule="evenodd">
        <path d="M32.5,8.52651283e-14 C50.4492544,8.52651283e-14 65,14.5507456 65,32.5 C65,50.4492544 50.4492544,65 32.5,65 C14.5507456,65 0,50.4492544 0,32.5 C0,14.5507456 14.5507456,8.52651283e-14 32.5,8.52651283e-14 Z M32.5,4 C16.7598846,4 4,16.7598846 4,32.5 C4,48.2401154 16.7598846,61 32.5,61 C48.2401154,61 61,48.2401154 61,32.5 C61,16.7598846 48.2401154,4 32.5,4 Z M29.185,24.325 L42.37,31.907 C42.9907083,32.263752 43.3733837,32.9250735 43.3733837,33.641 C43.3733837,34.3569265 42.9907083,35.018248 42.37,35.375 L29.185,42.957 C28.5658962,43.3144402 27.8030851,43.3142546 27.1841554,42.9565132 C26.5652256,42.5987718 26.1843031,41.9378793 26.184999,41.223 L26.184999,26.059 C26.1843031,25.3441207 26.5652256,24.6832282 27.1841554,24.3254868 C27.8030851,23.9677454 28.5658962,23.9675598 29.185,24.325 Z" id="icon" fill="#FFFFFF" fill-rule="nonzero"></path>
    </g>
</svg>