<?xml version="1.0" encoding="UTF-8"?>
<svg width="24px" height="24px" viewBox="0 0 24 24" version="1.1" xmlns="http://www.w3.org/2000/svg" xmlns:xlink="http://www.w3.org/1999/xlink">
    <title>loading-icon-on_light</title>
    <g id="loading-icon-on_light" stroke="none" stroke-width="1" fill="none" fill-rule="evenodd">
        <g id="Group" fill-rule="nonzero">
            <path d="M12,0 C18.627417,0 24,5.372583 24,12 C24,18.627417 18.627417,24 12,24 C5.372583,24 0,18.627417 0,12 C0,5.372583 5.372583,0 12,0 Z M12,4.5 C7.85786438,4.5 4.5,7.85786438 4.5,12 C4.5,16.1421356 7.85786438,19.5 12,19.5 C16.1421356,19.5 19.5,16.1421356 19.5,12 C19.5,7.85786438 16.1421356,4.5 12,4.5 Z" id="Oval" fill="#5D6A71" opacity="0.2"></path>
            <path d="M12,3.39728246e-13 L12,4.5 C7.85786438,4.5 4.5,7.85786438 4.5,12 C4.5,14.0710678 5.33946609,15.9460678 6.69669914,17.3033009 L3.51471863,20.4852814 C1.34314575,18.3137085 3.41060513e-13,15.3137085 3.41060513e-13,12 C3.41060513e-13,5.372583 5.372583,3.39728246e-13 12,3.39728246e-13 Z" id="Path" fill="#E54E2B"></path>
        </g>
    </g>
</svg>