<?xml version="1.0" encoding="UTF-8"?>
<svg width="51px" height="16px" viewBox="0 0 51 16" version="1.1" xmlns="http://www.w3.org/2000/svg" xmlns:xlink="http://www.w3.org/1999/xlink">
    <title>seah-logo</title>
    <g id="seah-logo" stroke="none" stroke-width="1" fill="none" fill-rule="evenodd">
        <g fill-rule="nonzero">
            <path d="M10.7310409,9.41 C10.2932669,8.8074375 9.67673412,8.35815936 8.96904091,8.126 C8.40626217,7.90767757 7.83169544,7.72105188 7.24804091,7.567 C6.29529592,7.37817971 5.37210294,7.0627134 4.50304091,6.629 C4.19673946,6.4620906 3.99548465,6.1517444 3.96804091,5.804 C3.96804091,5.604 3.96304091,5.122 4.73404091,4.735 C5.32440792,4.4872518 5.95686292,4.35519329 6.59704091,4.346 C6.75004091,4.34 6.89704091,4.338 7.04404091,4.338 C8.22196529,4.33891574 9.39397702,4.50451878 10.5260409,4.83 L10.5260409,2.844 C10.560026,2.40580012 10.2683393,2.00866404 9.84004091,1.91 C8.19659459,1.6096187 6.51872829,1.54496883 4.85704091,1.718 C3.93293201,1.80981473 3.02894472,2.04601895 2.17804091,2.418 C1.46282201,2.72556279 0.862484044,3.25033373 0.46204091,3.918 C0.201831269,4.39032305 0.0501547917,4.91470006 0.0180409101,5.453 C0.0060409101,5.6 0.0010409101,5.741 0.0010409101,5.877 C-0.0126546629,6.45053616 0.108963912,7.01923147 0.35604091,7.537 C0.570494439,7.97592685 0.877544559,8.36315116 1.25604091,8.672 C2.00318987,9.24221126 2.86222722,9.64838839 3.77704091,9.864 C4.69059102,10.0792284 5.5875525,10.3596124 6.46104091,10.703 C6.85561198,10.8475753 7.12691115,11.2123391 7.15186742,11.6318215 C7.1768237,12.0513039 6.95068696,12.4456617 6.57604091,12.636 C5.85320286,13.0121349 5.03058158,13.1520365 4.22404091,13.036 C2.84400528,12.9953645 1.47442949,12.7827225 0.14704091,12.403 L0.14704091,15.225 C0.39104091,15.284 0.73004091,15.357 1.16304091,15.431 C2.57531167,15.7009842 4.01278939,15.8163312 5.45004091,15.775 C7.02256815,15.8223801 8.57387152,15.4027139 9.90804091,14.569 C10.7699602,13.9517832 11.2864937,12.9610491 11.2990409,11.901 C11.3080409,11.748 11.3130409,11.601 11.3130409,11.458 C11.3426667,10.730393 11.1387252,10.012393 10.7310409,9.409" id="패스_10090" fill="#FFFFFF"></path>
            <path d="M16.0700409,8.65 C16.1467856,8.31141586 16.3292505,8.0060236 16.5910409,7.778 C16.8388549,7.57891982 17.1435063,7.46371254 17.4610409,7.449 C17.5050409,7.449 17.5490409,7.449 17.5920409,7.449 C17.8979852,7.44216273 18.199061,7.52639435 18.4570409,7.691 C18.6564584,7.82397947 18.816939,8.00758307 18.9220409,8.223 C19.0464411,8.63291832 19.0998768,9.06108065 19.0800409,9.489 L16.0150409,9.489 C16.0057831,9.2095338 16.0242062,8.92983735 16.0700409,8.654 M17.4510409,13.336 C16.9280224,13.1896152 16.4803631,12.8495801 16.1990409,12.385 C16.0080528,12.0293835 15.9230268,11.6264645 15.9540409,11.224 L21.6450409,11.224 C21.9041781,11.2422526 22.1574599,11.1411422 22.3327873,10.9494509 C22.5081146,10.7577597 22.586283,10.4964845 22.5450409,10.24 C22.5042064,9.62568477 22.3890325,9.0185874 22.2020409,8.432 C21.9301293,7.50971321 21.3201512,6.72402712 20.4940409,6.232 C19.5978967,5.7191435 18.5815188,5.45374635 17.5490409,5.463 C16.5390512,5.46294311 15.5401391,5.67341966 14.6160409,6.081 C13.9973556,6.34937941 13.4608196,6.77688307 13.0610409,7.32 C12.4564607,8.27973937 12.1676109,9.40471465 12.2350409,10.537 C12.2350409,10.746 12.2350409,10.946 12.2460409,11.137 C12.2797626,12.1618048 12.634838,13.1500689 13.2610409,13.962 C14.1741541,15.0430216 15.5045545,15.6838541 16.9190409,15.724 C17.4430409,15.77 17.9370409,15.788 18.3970409,15.788 C19.5480914,15.8107791 20.6955292,15.6518253 21.7970409,15.317 L21.7970409,13.21 C20.9750827,13.4862935 20.1108721,13.6156035 19.2440409,13.592 C18.6382992,13.6076383 18.0342321,13.5214395 17.4570409,13.337" id="패스_10091" fill="#FFFFFF"></path>
            <path d="M28.1920409,9.765 L29.8060409,4.815 L29.8150409,4.79 C29.8516084,4.68504491 29.9519422,4.61586313 30.0630409,4.619 C30.1707889,4.6149904 30.2688756,4.68078518 30.3060409,4.782 L31.9060409,9.765 L28.1920409,9.765 Z M32.8490409,1.906 L28.5010409,1.906 L28.5010409,1.906 L28.4310409,1.906 L28.3200409,1.906 C27.7744835,1.91165207 27.2869999,2.24798413 27.0880409,2.756 L27.0180409,2.963 L27.0180409,2.963 L22.7430409,15.518 L26.7650409,15.518 L27.6650409,12.273 L32.3700409,12.273 L33.3290409,15.518 L37.5600409,15.518 L32.8490409,1.906 Z" id="패스_10092" fill="#FFFFFF"></path>
            <path d="M47.5940409,1.906 C47.3005103,1.87299912 47.0069377,1.96760613 46.7879075,2.16578546 C46.5688773,2.36396479 46.445471,2.64664166 46.4490409,2.942 L46.4490409,7.085 L42.4310409,7.085 L42.4310409,1.907 L39.5100409,1.907 C39.2165103,1.87399912 38.9229377,1.96860613 38.7039075,2.16678546 C38.4848773,2.36496479 38.361471,2.64764166 38.3649655,2.943 L38.3649655,15.52 L42.4320409,15.52 L42.4320409,10.126 L46.4500409,10.126 L46.4500409,15.52 L50.5170409,15.52 L50.5170409,1.906 L47.5940409,1.906 Z" id="패스_10093" fill="#FFFFFF"></path>
            <path d="M12.8350409,1.74 L16.9280409,4.028 C17.3190129,4.24747393 17.7960689,4.24747393 18.1870409,4.028 L18.1870409,4.028 L21.7960409,1.98 C22.0383004,1.83041039 22.1198381,1.51660013 21.9810409,1.268 L21.2670409,4.26325641e-14 L18.1880409,1.733 C17.7970689,1.95247393 17.3200129,1.95247393 16.9290409,1.733 L14.2680409,0.242 C14.1516908,0.174424463 14.0130159,0.156593722 13.8833553,0.192537355 C13.7536948,0.228480988 13.6439928,0.315165135 13.5790409,0.433 L12.8350409,1.74 Z" id="패스_10094" fill="#E2481A"></path>
        </g>
    </g>
</svg>