<?xml version="1.0" encoding="UTF-8"?>
<svg width="51px" height="16px" viewBox="0 0 51 16" version="1.1" xmlns="http://www.w3.org/2000/svg" xmlns:xlink="http://www.w3.org/1999/xlink">
    <title>seah-logo_color</title>
    <g id="seah-logo_color" stroke="none" stroke-width="1" fill="none" fill-rule="evenodd">
        <g id="img-logo_color" fill-rule="nonzero">
            <path d="M10.669,9.43 C10.2353788,8.8275799 9.62256511,8.37750656 8.918,8.144 C8.35864456,7.92532517 7.78740471,7.7383618 7.207,7.584 C6.25964028,7.39487018 5.34206228,7.0790323 4.479,6.645 C4.17382846,6.47688236 3.97384367,6.16637966 3.947,5.819 C3.947,5.619 3.942,5.136 4.708,4.748 C5.29417805,4.50029813 5.92270124,4.36820979 6.559,4.359 C6.711,4.353 6.859,4.351 7.003,4.351 C8.17375872,4.35208249 9.33853082,4.51804568 10.463,4.844 L10.463,2.854 C10.4988167,2.4161626 10.2087512,2.01806677 9.781,1.918 C8.14803828,1.61724944 6.480346,1.55258932 4.829,1.726 C3.91034739,1.81773136 3.01194655,2.053975 2.167,2.426 C1.45548402,2.73491721 0.859049715,3.25963947 0.462,3.926 C0.202899171,4.39973639 0.0519503385,4.92498369 0.02,5.464 C0.008,5.611 0.003,5.753 0.003,5.889 C-0.0106698361,6.46328016 0.110218879,7.03279272 0.356,7.552 C0.568785327,7.99114716 0.874110221,8.37902917 1.251,8.689 C1.9925314,9.25968415 2.84665095,9.66663497 3.757,9.883 C4.66503083,10.0985458 5.55634105,10.3792735 6.424,10.723 C6.81734415,10.8698937 7.08706107,11.2349306 7.11194547,11.6540704 C7.13682986,12.0732101 6.91220001,12.4675964 6.539,12.66 C5.82160715,13.0362482 5.00368745,13.176243 4.202,13.06 C2.83044159,13.0191786 1.46944772,12.8061769 0.151,12.426 L0.151,15.252 C0.393,15.311 0.73,15.384 1.161,15.458 C2.56446611,15.7282438 3.99335794,15.8436014 5.422,15.802 C6.98595246,15.8489479 8.52836611,15.4283529 9.852,14.594 C10.708675,13.9729298 11.2208601,12.9830515 11.233,11.925 C11.242,11.771 11.247,11.625 11.247,11.482 C11.2764013,10.753917 11.073642,10.0353295 10.668,9.43" id="패스_10090" fill="#3F474C"></path>
            <path d="M15.967,8.668 C16.0430594,8.32956631 16.2244055,8.02393865 16.485,7.795 C16.7306236,7.59532681 17.0337956,7.47966584 17.35,7.465 C17.394,7.465 17.438,7.465 17.48,7.465 C17.7841542,7.45856434 18.0832901,7.54318603 18.339,7.708 C18.5374493,7.84165699 18.6968751,8.02558335 18.801,8.241 C18.9246382,8.65175216 18.9777242,9.08049713 18.958,9.509 L15.912,9.509 C15.9029298,9.22920491 15.9213515,8.94919518 15.967,8.673 M17.339,13.363 C16.3877904,13.1236064 15.7549893,12.2241613 15.851,11.248 L21.506,11.248 C21.76425,11.2642765 22.0158251,11.1618895 22.189315,10.9699018 C22.3628049,10.7779141 22.439268,10.5172869 22.397,10.262 C22.3564138,9.64683721 22.2419236,9.03879666 22.056,8.451 C21.786906,7.52830862 21.1798824,6.74096335 20.356,6.246 C19.4665644,5.73264483 18.45591,5.46677401 17.429,5.476 C16.4247208,5.47605435 15.4316383,5.68693534 14.514,6.095 C13.8979381,6.36458621 13.3644491,6.79282676 12.968,7.336 C12.3671119,8.2989597 12.0805477,9.42494746 12.148,10.558 C12.148,10.767 12.148,10.968 12.159,11.158 C12.1960438,13.6993295 14.2614205,15.7429139 16.803,15.753 C17.324,15.799 17.814,15.817 18.272,15.817 C19.4155586,15.8394807 20.5554288,15.6801622 21.649,15.345 L21.649,13.235 C20.832652,13.5117542 19.9736658,13.6414317 19.112,13.618 C18.5098562,13.6337554 17.9093853,13.5475392 17.336,13.363" id="패스_10091" fill="#3F474C"></path>
            <path d="M28.018,9.784 L29.618,4.826 L29.627,4.801 C29.6629184,4.69599663 29.7630736,4.62665847 29.874,4.63 C29.9814765,4.62611339 30.0792095,4.69194176 30.116,4.793 L31.709,9.784 L28.018,9.784 Z M32.646,1.912 L28.325,1.912 L28.325,1.912 L28.255,1.912 L28.144,1.912 C27.6005125,1.919138 27.1159685,2.25602269 26.92,2.763 L26.85,2.97 L26.85,2.97 L22.602,15.546 L26.602,15.546 L27.493,12.296 L32.169,12.296 L33.122,15.546 L37.322,15.546 L32.646,1.912 Z" id="패스_10092" fill="#3F474C"></path>
            <path d="M47.298,1.912 C47.0052853,1.88046618 46.7130981,1.97594673 46.4954873,2.17424407 C46.2778766,2.37254141 46.1557288,2.65462262 46.16,2.949 L46.16,7.098 L42.167,7.098 L42.167,1.911 L39.267,1.911 C38.9742853,1.87946618 38.6820981,1.97494673 38.4644873,2.17324407 C38.2468766,2.37154141 38.1247288,2.65362262 38.1288916,2.948 L38.1288916,15.548 L42.171,15.548 L42.171,10.148 L46.164,10.148 L46.164,15.548 L50.206,15.548 L50.206,1.912 L47.298,1.912 Z" id="패스_10093" fill="#3F474C"></path>
            <path d="M12.754,1.744 L16.822,4.035 C17.2100825,4.25462313 17.6849175,4.25462313 18.073,4.035 L18.073,4.035 L21.659,1.983 C21.9007272,1.83200538 21.981643,1.5180172 21.843,1.269 L21.133,-0.001 L18.073,1.735 C17.6849699,1.95482202 17.2100301,1.95482202 16.822,1.735 L14.177,0.241 C14.0613344,0.172811378 13.9228604,0.154749358 13.7935738,0.190987352 C13.6642872,0.227225346 13.5553741,0.314627983 13.492,0.433 L12.754,1.744 Z" id="패스_10094" fill="#E2481A"></path>
        </g>
    </g>
</svg>